<svg width="24" height="24" viewBox="0 0 24 24" fill="none" xmlns="http://www.w3.org/2000/svg">
<path d="M14 17.5001C14.2759 17.4999 14.5002 17.2761 14.5 17.0001V15.0001C14.5 14.7239 14.2761 14.5001 14 14.5001C13.7239 14.5001 13.5 14.7239 13.5 15.0001V17.0006C13.5002 17.2766 13.724 17.5002 14 17.5001ZM19 6.00006H17.0591L15.1973 2.27642C15.0738 2.02941 14.7734 1.92925 14.5264 2.05279C14.2794 2.17626 14.1792 2.47668 14.3027 2.72369L15.9409 6.00006H8.05908L9.69727 2.72369C9.8208 2.47668 9.72064 2.17626 9.47363 2.05279C9.22662 1.92925 8.92621 2.02941 8.80273 2.27642L6.94092 6.00006H5C3.34314 6.00006 2 7.3432 2 9.00006C2 10.3488 2.89606 11.4762 4.12085 11.8539L4.79492 19.2715C4.92914 20.8201 6.22882 22.0068 7.7832 22.0001H16.2168C17.7712 22.0068 19.0709 20.8201 19.205 19.2715L19.8791 11.8539C21.1039 11.4763 22 10.3489 22 9.00006C22 7.3432 20.6569 6.00006 19 6.00006ZM18.209 19.1817C18.119 20.2137 17.2527 21.0044 16.2168 21.0001H7.7832C6.74725 21.0044 5.88098 20.2137 5.79102 19.1817L5.13867 12.0001H18.8613L18.209 19.1817ZM19 11.0001H5C3.89545 11.0001 3 10.1046 3 9.00006C3 7.8955 3.89545 7.00006 5 7.00006H19C20.1046 7.00006 21 7.8955 21 9.00006C21 10.1046 20.1046 11.0001 19 11.0001ZM10 17.5001C10.2759 17.4999 10.5002 17.2761 10.5 17.0001V15.0001C10.5 14.7239 10.2761 14.5001 10 14.5001C9.72388 14.5001 9.5 14.7239 9.5 15.0001V17.0006C9.50018 17.2766 9.724 17.5002 10 17.5001Z" fill="black"/>
</svg>
