<svg width="33" height="33" viewBox="0 0 33 33" fill="none" xmlns="http://www.w3.org/2000/svg">
<g clip-path="url(#clip0_1_925)">
<path d="M24.6988 23.5726C26.0818 23.5986 27.3698 24.6696 27.6158 26.0446C27.8548 27.3826 27.0588 28.8376 25.7948 29.3546C24.3988 29.9256 22.6168 29.2496 21.9548 27.8766C21.2698 26.4556 21.9358 24.5336 23.3908 23.8536C23.7758 23.6736 24.1988 23.5806 24.6218 23.5726C24.6598 23.5726 24.6598 23.5726 24.6988 23.5726ZM11.2068 19.5696L5.9528 5.55862H4.6448C4.6448 5.55862 3.9658 5.48062 3.7348 4.97362C3.4848 4.42762 3.8588 3.69062 4.4558 3.57562C4.5388 3.55962 4.5608 3.56162 4.6448 3.55762H6.6468C6.6778 3.55862 6.7088 3.56062 6.7398 3.56162C6.8218 3.57362 6.8428 3.57362 6.9228 3.59662C7.2218 3.68262 7.4588 3.91562 7.5838 4.20662L13.3448 19.5696H25.8138L27.4818 9.56162H12.6508L12.5558 9.55762C12.4718 9.54562 12.4508 9.54562 12.3688 9.52162C11.6258 9.30362 11.4078 8.07662 12.1928 7.67162C12.3328 7.59962 12.4898 7.56862 12.6508 7.56062H28.6628C29.2498 7.58862 29.7218 8.11162 29.6498 8.72562L27.6488 20.7346C27.5478 21.2036 27.1418 21.5486 26.6618 21.5706C26.6618 21.5706 11.3078 21.5666 10.6368 21.5706C9.8808 21.5856 9.3448 22.6366 9.9158 23.2526C10.1028 23.4536 10.3728 23.5706 10.6528 23.5726H18.6558C19.4288 23.5966 19.9648 24.6406 19.3848 25.2586C19.2268 25.4266 19.0098 25.5376 18.7808 25.5656C18.7258 25.5726 18.7118 25.5726 18.6558 25.5736H15.4778C15.5338 25.7256 15.5778 25.8826 15.6068 26.0446C15.8458 27.3826 15.0508 28.8376 13.7858 29.3546C12.3908 29.9256 10.6078 29.2496 9.9458 27.8766C9.5848 27.1276 9.5988 26.2396 9.9058 25.4666C8.6988 25.1236 7.7148 23.9986 7.6508 22.7206C7.5718 21.1186 8.9488 19.5806 10.6468 19.5696H11.2068ZM12.6378 25.5736C11.8718 25.5886 11.3258 26.6786 11.9528 27.2906C12.4678 27.7936 13.5318 27.5056 13.6418 26.7156C13.7218 26.1486 13.2658 25.5696 12.6378 25.5736ZM24.6468 25.5736C23.8808 25.5886 23.3348 26.6786 23.9608 27.2906C24.4758 27.7926 25.5408 27.5056 25.6508 26.7156C25.7308 26.1486 25.2748 25.5696 24.6468 25.5736Z" fill="white"/>
</g>
<defs>
<clipPath id="clip0_1_925">
<rect width="32" height="32" fill="white" transform="translate(0.656799 0.557617)"/>
</clipPath>
</defs>
</svg>
