<svg width="32" height="33" viewBox="0 0 32 33" fill="none" xmlns="http://www.w3.org/2000/svg">
<g clip-path="url(#clip0_126_22)">
<path d="M28.16 7.83508H3.84C3.488 7.83508 3.2 8.12308 3.2 8.47508V24.4751C3.2 24.8271 3.488 25.1151 3.84 25.1151H28.16C28.512 25.1151 28.8 24.8271 28.8 24.4751V8.47508C28.8 8.12308 28.512 7.83508 28.16 7.83508ZM26.624 9.11508L16 19.7391L5.376 9.11508H26.624ZM4.48 10.0111L10.944 16.4751L4.48 22.9391V10.0111ZM5.408 23.8351L11.84 17.4031L15.552 21.1151C15.808 21.3711 16.192 21.3711 16.448 21.1151L20.16 17.4031L26.592 23.8351H5.408ZM27.52 22.9391L21.056 16.4751L27.52 10.0111V22.9391Z" fill="#292929"/>
<path d="M257.28 -162.725V376.155H-313.6V-162.725H257.28ZM259.84 -165.285H-316.16V378.715H259.84V-165.285Z" fill="#292929"/>
</g>
<defs>
<clipPath id="clip0_126_22">
<rect width="32" height="32" fill="white" transform="translate(0 0.475098)"/>
</clipPath>
</defs>
</svg>
