<svg width="37" height="43" viewBox="0 0 37 43" fill="none" xmlns="http://www.w3.org/2000/svg">
<path fill-rule="evenodd" clip-rule="evenodd" d="M18.0476 0.922363L27.0476 6.04544L36.0476 11.307V21.6916V32.0762L27.0476 37.3377L18.0476 42.4608L9.04761 37.3377L0.0476074 32.0762V21.6916V11.307L9.04761 6.04544L18.0476 0.922363Z" fill="white"/>
<path fill-rule="evenodd" clip-rule="evenodd" d="M18.0474 4.38354L25.5243 8.67585L33.0013 12.9682V21.6912V30.4143L25.5243 34.7066L18.0474 38.9989L10.5705 34.7066L3.09357 30.4143V21.6912V12.9682L10.5705 8.67585L18.0474 4.38354Z" fill="white"/>
<path fill-rule="evenodd" clip-rule="evenodd" d="M15.4167 17.8149H13.6167L13.4782 21.6918H15.4167V31.3841H19.2936V21.6918H22.2013L22.6167 17.8149H19.4321C19.4321 14.3534 19.709 15.5995 22.4782 15.3226V11.9995C21.7859 11.9995 20.1244 11.9995 19.2936 11.9995C18.3244 11.9995 17.4936 12.2764 16.9397 12.8303C15.4167 13.938 15.4167 15.5995 15.4167 17.8149Z" fill="#591C27"/>
</svg>
