<svg width="33" height="33" viewBox="0 0 33 33" fill="none" xmlns="http://www.w3.org/2000/svg">
<g clip-path="url(#clip0_177_94)">
<path d="M16.2088 27.8856L5.6808 17.4536C5.2328 17.0376 4.8808 16.5576 4.5608 16.0456C2.8328 13.1976 3.2808 9.5496 5.6808 7.1816C7.0568 5.8056 8.9128 5.0376 10.8648 5.0376C13.9368 5.0376 15.8568 6.8296 16.6568 7.8536C17.4568 6.8296 19.3768 5.0376 22.4488 5.0376C24.4008 5.0376 26.2568 5.8056 27.6328 7.1816C30.0008 9.5496 30.4808 13.1976 28.7528 16.0456C28.4328 16.5576 28.0808 17.0376 27.6328 17.4536L17.1048 27.8856C16.8488 28.1416 16.4648 28.1416 16.2088 27.8856ZM10.8648 6.3176C9.2328 6.3176 7.7288 6.9576 6.5768 8.0776C4.6248 10.0296 4.2408 13.0376 5.6488 15.3736C5.9048 15.7896 6.2248 16.2056 6.5768 16.5576L16.6568 26.5416L26.7368 16.5576C27.0888 16.2056 27.4088 15.8216 27.6648 15.3736C29.0728 13.0056 28.7208 9.9976 26.7368 8.0776C25.5848 6.9576 24.0488 6.3176 22.4488 6.3176C20.1448 6.3176 18.2248 7.5656 17.2008 9.2936C16.9448 9.7096 16.3368 9.7096 16.0808 9.2936C15.0888 7.5656 13.1688 6.3176 10.8648 6.3176Z" fill="white"/>
<path d="M302.737 -117.842V421.038H-268.143V-117.842H302.737ZM305.297 -120.402H-270.703V423.598H305.297V-120.402Z" fill="white"/>
</g>
<defs>
<clipPath id="clip0_177_94">
<rect width="32" height="32" fill="white" transform="translate(0.656799 0.557617)"/>
</clipPath>
</defs>
</svg>
