<svg width="37" height="43" viewBox="0 0 37 43" fill="none" xmlns="http://www.w3.org/2000/svg">
<path fill-rule="evenodd" clip-rule="evenodd" d="M18.0476 0.922363L27.0476 6.04544L36.0476 11.307V21.6916V32.0762L27.0476 37.3377L18.0476 42.4608L9.04761 37.3377L0.0476074 32.0762V21.6916V11.307L9.04761 6.04544L18.0476 0.922363Z" fill="white"/>
<path fill-rule="evenodd" clip-rule="evenodd" d="M18.0474 4.38354L25.5243 8.67585L33.0013 12.9682V21.6912V30.4143L25.5243 34.7066L18.0474 38.9989L10.5705 34.7066L3.09357 30.4143V21.6912V12.9682L10.5705 8.67585L18.0474 4.38354Z" fill="white"/>
<path d="M18.0476 19.2117C17.5571 19.2117 17.0776 19.3571 16.6698 19.6296C16.262 19.9021 15.9441 20.2894 15.7564 20.7426C15.5687 21.1958 15.5196 21.6944 15.6153 22.1755C15.711 22.6565 15.9471 23.0984 16.294 23.4453C16.6408 23.7921 17.0827 24.0283 17.5638 24.124C18.0449 24.2197 18.5435 24.1706 18.9967 23.9829C19.4498 23.7952 19.8371 23.4773 20.1097 23.0695C20.3822 22.6616 20.5276 22.1821 20.5276 21.6917C20.5276 21.366 20.4635 21.0435 20.3388 20.7426C20.2142 20.4417 20.0315 20.1683 19.8012 19.938C19.5709 19.7077 19.2975 19.5251 18.9967 19.4004C18.6958 19.2758 18.3733 19.2117 18.0476 19.2117ZM27.9776 16.7617C27.9723 15.9894 27.8301 15.2242 27.5576 14.5017C27.3569 13.9729 27.0463 13.4927 26.6464 13.0928C26.2465 12.6929 25.7663 12.3824 25.2376 12.1817C24.515 11.9091 23.7498 11.7669 22.9776 11.7617C21.6876 11.6917 21.3076 11.6917 18.0476 11.6917C14.7876 11.6917 14.4076 11.6917 13.1176 11.7617C12.3454 11.7669 11.5802 11.9091 10.8576 12.1817C10.3289 12.3824 9.8487 12.6929 9.44879 13.0928C9.04888 13.4927 8.73832 13.9729 8.53761 14.5017C8.26507 15.2242 8.12287 15.9894 8.11761 16.7617C8.04761 18.0517 8.04761 18.4317 8.04761 21.6917C8.04761 24.9517 8.04761 25.3317 8.11761 26.6217C8.12837 27.3966 8.27038 28.1641 8.53761 28.8917C8.73744 29.418 9.04774 29.8954 9.44761 30.2917C9.8458 30.694 10.327 31.0045 10.8576 31.2017C11.5802 31.4742 12.3454 31.6164 13.1176 31.6217C14.4076 31.6917 14.7876 31.6917 18.0476 31.6917C21.3076 31.6917 21.6876 31.6917 22.9776 31.6217C23.7498 31.6164 24.515 31.4742 25.2376 31.2017C25.7682 31.0045 26.2494 30.694 26.6476 30.2917C27.0475 29.8954 27.3578 29.418 27.5576 28.8917C27.8299 28.1655 27.9721 27.3971 27.9776 26.6217C28.0476 25.3317 28.0476 24.9517 28.0476 21.6917C28.0476 18.4317 28.0476 18.0517 27.9776 16.7617ZM25.4376 24.7617C25.4055 25.3788 25.2738 25.9866 25.0476 26.5617C24.8535 27.0413 24.5649 27.4771 24.199 27.843C23.833 28.2089 23.3973 28.4975 22.9176 28.6917C22.3371 28.9052 21.7259 29.0234 21.1076 29.0417C20.3176 29.0417 20.1076 29.0417 18.0476 29.0417C15.9876 29.0417 15.7776 29.0417 14.9876 29.0417C14.3693 29.0234 13.7581 28.9052 13.1776 28.6917C12.6817 28.5074 12.2339 28.2134 11.8676 27.8316C11.5053 27.4729 11.2255 27.0395 11.0476 26.5617C10.8332 25.9818 10.7182 25.3698 10.7076 24.7517C10.7076 23.9617 10.7076 23.7516 10.7076 21.6917C10.7076 19.6317 10.7076 19.4216 10.7076 18.6316C10.7182 18.0135 10.8332 17.4015 11.0476 16.8217C11.2319 16.3258 11.5259 15.8779 11.9076 15.5117C12.2679 15.1513 12.7009 14.8717 13.1776 14.6917C13.7581 14.4781 14.3693 14.3599 14.9876 14.3417C15.7776 14.3417 15.9876 14.3417 18.0476 14.3417C20.1076 14.3417 20.3176 14.3417 21.1076 14.3417C21.7259 14.3599 22.3371 14.4781 22.9176 14.6917C23.4135 14.8759 23.8613 15.1699 24.2276 15.5517C24.5899 15.9104 24.8698 16.3438 25.0476 16.8217C25.2612 17.4021 25.3794 18.0134 25.3976 18.6316C25.3976 19.4216 25.3976 19.6317 25.3976 21.6917C25.3976 23.7516 25.4676 23.9617 25.4376 24.7517V24.7617ZM23.8376 17.3217C23.7185 16.9986 23.5308 16.7053 23.2874 16.4619C23.044 16.2184 22.7506 16.0307 22.4276 15.9117C21.9841 15.7579 21.517 15.6834 21.0476 15.6917C20.2676 15.6917 20.0476 15.6917 18.0476 15.6917C16.0476 15.6917 15.8276 15.6917 15.0476 15.6917C14.5759 15.6963 14.1087 15.7843 13.6676 15.9517C13.3495 16.0653 13.0593 16.2454 12.8162 16.4799C12.5731 16.7143 12.3827 16.9979 12.2576 17.3117C12.1124 17.757 12.0414 18.2232 12.0476 18.6917C12.0476 19.4717 12.0476 19.6917 12.0476 21.6917C12.0476 23.6917 12.0476 23.9117 12.0476 24.6917C12.0575 25.1628 12.1454 25.6292 12.3076 26.0716C12.4267 26.3947 12.6144 26.688 12.8578 26.9314C13.1013 27.1749 13.3946 27.3626 13.7176 27.4817C14.1443 27.6386 14.5933 27.7263 15.0476 27.7416C15.8276 27.7416 16.0476 27.7416 18.0476 27.7416C20.0476 27.7416 20.2676 27.7416 21.0476 27.7416C21.5193 27.737 21.9865 27.649 22.4276 27.4817C22.7506 27.3626 23.044 27.1749 23.2874 26.9314C23.5308 26.688 23.7185 26.3947 23.8376 26.0716C24.005 25.6306 24.093 25.1634 24.0976 24.6917C24.0976 23.9117 24.0976 23.6917 24.0976 21.6917C24.0976 19.6917 24.0976 19.4717 24.0976 18.6917C24.0979 18.2194 24.0097 17.7514 23.8376 17.3117V17.3217ZM18.0476 25.5117C17.5464 25.5117 17.0502 25.4128 16.5873 25.2207C16.1244 25.0286 15.7039 24.747 15.35 24.3922C14.9961 24.0373 14.7156 23.6162 14.5248 23.1527C14.3339 22.6893 14.2363 22.1928 14.2376 21.6917C14.2376 20.9357 14.4619 20.1967 14.8821 19.5683C15.3023 18.9399 15.8995 18.4503 16.5981 18.1615C17.2967 17.8727 18.0653 17.7976 18.8065 17.9458C19.5478 18.094 20.2285 18.4588 20.7623 18.9941C21.2961 19.5293 21.6592 20.2109 21.8054 20.9526C21.9517 21.6942 21.8746 22.4626 21.5839 23.1604C21.2933 23.8583 20.8021 24.4542 20.1726 24.8727C19.5431 25.2913 18.8036 25.5136 18.0476 25.5117ZM22.0476 18.6217C21.8266 18.5983 21.622 18.4939 21.4733 18.3286C21.3246 18.1634 21.2423 17.9489 21.2423 17.7267C21.2423 17.5044 21.3246 17.2899 21.4733 17.1247C21.622 16.9594 21.8266 16.855 22.0476 16.8317C22.2687 16.855 22.4732 16.9594 22.6219 17.1247C22.7706 17.2899 22.8529 17.5044 22.8529 17.7267C22.8529 17.9489 22.7706 18.1634 22.6219 18.3286C22.4732 18.4939 22.2687 18.5983 22.0476 18.6217Z" fill="#591C27"/>
</svg>
