<svg width="37" height="43" viewBox="0 0 37 43" fill="none" xmlns="http://www.w3.org/2000/svg">
<path fill-rule="evenodd" clip-rule="evenodd" d="M18.0476 0.922363L27.0476 6.04544L36.0476 11.307V21.6916V32.0762L27.0476 37.3377L18.0476 42.4608L9.04761 37.3377L0.0476074 32.0762V21.6916V11.307L9.04761 6.04544L18.0476 0.922363Z" fill="white"/>
<path fill-rule="evenodd" clip-rule="evenodd" d="M18.0474 4.38354L25.5243 8.67585L33.0012 12.9682V21.6912V30.4143L25.5243 34.7066L18.0474 38.9989L10.5704 34.7066L3.09351 30.4143V21.6912V12.9682L10.5704 8.67585L18.0474 4.38354Z" fill="white"/>
<g clip-path="url(#clip0_126_74)">
<path d="M28.0476 29.5575V22.1625C28.0476 18.2 25.9326 16.3563 23.1126 16.3563C20.837 16.3563 19.817 17.6081 19.2489 18.4869V16.6594H14.9614C15.0182 17.87 14.9614 29.5575 14.9614 29.5575H19.2489V22.3544C19.2489 21.97 19.2764 21.5844 19.3901 21.3094C19.6995 20.5388 20.4051 19.7413 21.5889 19.7413C23.1407 19.7413 23.7607 20.9238 23.7607 22.6575V29.5581L28.0476 29.5575ZM10.4445 14.8988C11.9389 14.8988 12.8707 13.9075 12.8707 12.6694C12.8432 11.4044 11.9395 10.4419 10.4732 10.4419C9.00698 10.4419 8.04761 11.4038 8.04761 12.6694C8.04761 13.9075 8.97823 14.8988 10.4176 14.8988H10.4445ZM12.5882 29.5575V16.6594H8.30136V29.5575H12.5882Z" fill="#591C27"/>
</g>
<defs>
<clipPath id="clip0_126_74">
<rect width="20" height="20" fill="white" transform="translate(8.04761 10)"/>
</clipPath>
</defs>
</svg>
