<svg width="32" height="33" viewBox="0 0 32 33" fill="none" xmlns="http://www.w3.org/2000/svg">
<path d="M16.1499 3.37125C10.2589 3.28841 5.41609 7.99699 5.33333 13.888C5.33333 21.1523 15.1523 29.526 15.5703 29.8789C15.6903 29.9809 15.8426 30.0367 16 30.0365C16.1574 30.0367 16.3097 29.9809 16.4297 29.8789C16.8477 29.526 26.6667 21.1523 26.6667 13.888C26.5855 8.11369 21.9242 3.45239 16.1499 3.37125ZM16 28.4818C14.112 26.7865 6.66666 19.7253 6.66666 13.888C6.71378 8.77694 10.8888 4.66829 16 4.70312C21.1112 4.66829 25.2863 8.77694 25.3333 13.888C25.3333 19.7201 17.8866 26.7852 16 28.4818ZM16 10.0365C13.7908 10.0365 12 11.8273 12 14.0365C12 16.2456 13.7908 18.0365 16 18.0365C18.2082 18.034 19.9976 16.2446 20 14.0365C20 11.8273 18.2091 10.0365 16 10.0365ZM16 16.7031C14.5273 16.7031 13.3333 15.5092 13.3333 14.0365C13.3333 12.5637 14.5273 11.3698 16 11.3698C17.472 11.3717 18.6648 12.5645 18.6667 14.0365C18.6667 15.5092 17.4727 16.7031 16 16.7031Z" fill="#292929"/>
</svg>
