<svg width="24" height="24" viewBox="0 0 24 24" fill="none" xmlns="http://www.w3.org/2000/svg">
<path d="M17.3591 5.78628L17.7341 6.91128C17.8434 7.26742 18.0692 7.57645 18.3753 7.78878L19.3241 8.42628C19.6426 8.64007 19.8781 8.9566 19.9914 9.32309C20.1047 9.68958 20.0889 10.0838 19.9466 10.44L19.5716 11.3513C19.4083 11.7541 19.4083 12.2047 19.5716 12.6075L19.9466 13.4963C20.0885 13.8453 20.1088 14.232 20.004 14.594C19.8992 14.956 19.6755 15.2721 19.3691 15.4913L18.5253 16.095C18.216 16.3149 17.9911 16.6337 17.8878 16.9988L17.5841 18.0638C17.4783 18.4377 17.2457 18.7631 16.9261 18.9841C16.6065 19.2051 16.22 19.308 15.8328 19.275L14.9216 19.2C14.4903 19.1642 14.0622 19.2988 13.7291 19.575L12.8516 20.2838C12.5524 20.5278 12.1782 20.661 11.7922 20.661C11.4062 20.661 11.032 20.5278 10.7328 20.2838L9.98281 19.6688C9.68217 19.4238 9.3056 19.2912 8.91781 19.2938H7.60156C7.22277 19.2948 6.8549 19.1668 6.55846 18.931C6.26199 18.6952 6.05457 18.3656 5.97031 17.9963L5.73031 16.9763C5.63649 16.5647 5.38985 16.2042 5.04031 15.9675L4.23406 15.375C3.92889 15.1675 3.70117 14.8646 3.5865 14.5138C3.47183 14.163 3.47669 13.7841 3.60031 13.4363L3.97531 12.4088C4.11406 12.035 4.11406 11.6238 3.97531 11.25L3.63781 10.35C3.50285 9.99258 3.49437 9.59965 3.61376 9.23669C3.73316 8.87373 3.97325 8.56259 4.29406 8.35503L5.18281 7.78128C5.52642 7.55905 5.77711 7.219 5.88781 6.82503L6.15031 5.88003C6.2555 5.50375 6.48879 5.17608 6.80994 4.95352C7.13105 4.73099 7.51981 4.62764 7.90906 4.66128L8.74906 4.73253C9.18125 4.76658 9.60987 4.63222 9.94531 4.35753L10.7441 3.71254C11.0441 3.46733 11.4197 3.33337 11.8072 3.33337C12.1947 3.33337 12.5703 3.46733 12.8703 3.71254L13.5678 4.29753C13.9032 4.57492 14.3341 4.70958 14.7678 4.67253L15.6491 4.60878C16.0249 4.5844 16.3981 4.6873 16.7083 4.90094C17.0185 5.11454 17.2478 5.42643 17.3591 5.78628Z" stroke="black" stroke-miterlimit="10"/>
<path d="M15.4358 8.32126L7.98828 15.7725M9.70957 10.4438C10.4904 10.4438 11.1233 9.81087 11.1233 9.03008C11.1233 8.24926 10.4904 7.61633 9.70957 7.61633C8.92878 7.61633 8.29582 8.24926 8.29582 9.03008C8.29582 9.81087 8.92878 10.4438 9.70957 10.4438ZM14.0221 16.3838C14.8029 16.3838 15.4358 15.7508 15.4358 14.97C15.4358 14.1892 14.8029 13.5563 14.0221 13.5563C13.2413 13.5563 12.6083 14.1892 12.6083 14.97C12.6083 15.7508 13.2413 16.3838 14.0221 16.3838Z" stroke="black" stroke-linecap="round" stroke-linejoin="round"/>
</svg>
