<svg width="32" height="33" viewBox="0 0 32 33" fill="none" xmlns="http://www.w3.org/2000/svg">
<path d="M23.7333 30.2085C22.1333 30.2085 19.8667 29.5418 16.8 28.3418C12.6667 26.6085 8.53333 23.0085 5.2 18.2085L5.06666 18.0752C4 16.4752 2.26666 13.5418 2.26666 10.6085C2.26666 7.14184 4 5.4085 4.66666 4.6085C5.33333 4.07517 6.4 3.67517 7.46666 3.67517H8.26666C9.2 3.67517 9.73333 3.94184 10.2667 5.14184L10.9333 6.74184C11.4667 8.07517 12.2667 9.94184 12.2667 10.0752C12.4 10.3418 12.8 11.1418 12.4 11.9418C12.2667 12.3418 12 12.6085 11.7333 13.0085L11.2 13.5418C10.9333 13.6752 10.8 13.9418 10.6667 14.0752C10.2667 14.4752 10.2667 14.6085 10.4 14.8752C11.0667 15.8085 12.2667 17.8085 14 19.4085C16.2667 21.4085 18.1333 22.2085 19.0667 22.6085L19.3333 22.7418C19.4667 22.7418 19.6 22.8752 19.7333 22.8752C19.8667 22.8752 20.1333 22.8752 20.2667 22.7418C20.6667 22.2085 21.2 21.5418 21.7333 20.7418L22 20.3418C22.5333 19.6752 23.0667 19.4085 23.4667 19.4085C23.7333 19.4085 24 19.4085 24.2667 19.5418C24.9333 19.8085 27.7333 21.1418 28.9333 21.8085H29.3333C29.8667 22.0752 30.2667 22.2085 30.5333 22.6085C30.9333 23.1418 30.6667 24.7418 30.1333 26.2085C29.4667 28.0752 27.0667 29.4085 25.2 29.8085C24.8 30.0752 24.2667 30.2085 23.7333 30.2085ZM7.46666 4.87517C6.66666 4.87517 6 5.0085 5.6 5.4085C4.8 6.2085 3.33333 7.67517 3.33333 10.6085C3.33333 12.4752 4.26666 14.8752 6 17.1418L6.13333 17.4085C9.33333 22.0752 13.3333 25.5418 17.2 27.1418C20.2667 28.3418 22.2667 29.0085 23.7333 29.0085C24.2667 29.0085 24.5333 28.8752 24.9333 28.8752C26.5333 28.6085 28.5333 27.4085 29.0667 26.0752C29.6 24.6085 29.6 23.5418 29.4667 23.2752C29.4667 23.2752 29.0667 23.1418 28.8 23.0085L28.4 22.8752C26.6667 21.9418 24.4 20.8752 23.8667 20.7418C23.4667 20.6085 23.3333 20.4752 22.9333 21.0085L22.6667 21.2752C22.1333 22.0752 21.6 22.8752 21.0667 23.4085C20.5333 23.9418 19.6 24.0752 18.8 23.8085H18.5333C17.7333 23.4085 15.6 22.6085 13.2 20.4752C11.3333 18.8752 10 16.7418 9.33333 15.6752C8.8 14.4752 9.33333 13.8085 9.73333 13.4085C10 13.1418 10.1333 12.8752 10.4 12.7418C10.4 12.6085 10.5333 12.4752 10.6667 12.2085C11.0667 11.8085 11.2 11.6752 11.3333 11.2752C11.4667 11.1418 11.4667 11.0085 11.3333 10.6085C11.2 10.3418 10.6667 9.0085 9.86666 7.14184L9.2 5.67517C8.93333 4.87517 8.8 4.87517 8.26666 4.87517H7.46666Z" fill="#292929"/>
</svg>
