<svg width="37" height="43" viewBox="0 0 37 43" fill="none" xmlns="http://www.w3.org/2000/svg">
<g clip-path="url(#clip0_80_6)">
<path fill-rule="evenodd" clip-rule="evenodd" d="M18.0476 0.921875L27.0476 6.04495L36.0476 11.3065V21.6911V32.0757L27.0476 37.3372L18.0476 42.4603L9.04761 37.3372L0.0476074 32.0757V21.6911V11.3065L9.04761 6.04495L18.0476 0.921875Z" fill="white"/>
<path fill-rule="evenodd" clip-rule="evenodd" d="M18.0474 4.38379L25.5243 8.6761L33.0013 12.9684V21.6914V30.4146L25.5243 34.7068L18.0474 38.9991L10.5705 34.7068L3.09357 30.4146V21.6914V12.9684L10.5705 8.6761L18.0474 4.38379Z" fill="white"/>
<path d="M18.887 13.4209C14.4152 13.4209 12.1569 16.5812 12.1569 19.217C12.1569 20.8163 12.7711 22.2302 14.0826 22.7612C14.3001 22.8507 14.492 22.7676 14.556 22.5309C14.6007 22.3709 14.7991 21.9551 14.8438 21.7888C14.9078 21.5584 14.8822 21.4753 14.7095 21.2706C14.3321 20.8291 14.0953 20.3685 14.0953 19.5624C14.0953 16.8755 15.7715 14.9627 18.6247 14.9627C21.1517 14.9627 22.54 16.5301 22.54 18.5644C22.54 21.2386 21.3372 23.4137 19.5524 23.4137C18.5672 23.4137 17.8315 22.6972 18.0682 21.712C18.3496 20.5349 18.8998 19.2682 18.8998 18.4173C18.8998 17.656 18.4904 17.1122 17.6331 17.1122C16.6287 17.1122 15.8163 18.0526 15.8163 19.4281C15.8163 20.3045 16.1041 20.7396 16.1041 20.7396C16.1041 20.7396 15.0869 25.1986 14.9014 25.9535C14.5432 27.4569 14.8502 29.2929 14.8758 29.4785C14.8886 29.5872 15.0358 29.6128 15.0997 29.5297C15.1893 29.4145 16.392 27.9495 16.8015 26.4909C16.9166 26.0814 17.4668 23.9447 17.4668 23.9447C17.7931 24.5588 18.7527 24.9555 19.7635 24.9555C22.7895 24.9555 24.843 22.3773 24.843 18.7436C24.8494 15.9863 22.4824 13.4209 18.887 13.4209Z" fill="#591C27"/>
</g>
<defs>
<clipPath id="clip0_80_6">
<rect width="37" height="43" fill="white"/>
</clipPath>
</defs>
</svg>
