<svg width="24" height="24" viewBox="0 0 24 24" fill="none" xmlns="http://www.w3.org/2000/svg">
<path d="M17.8552 5.45291L18.2302 6.57791C18.3395 6.93404 18.5653 7.24308 18.8714 7.45541L19.8202 8.0929C20.1387 8.30669 20.3742 8.62323 20.4875 8.98972C20.6008 9.3562 20.585 9.75044 20.4427 10.1067L20.0677 11.0179C19.9044 11.4208 19.9044 11.8713 20.0677 12.2742L20.4427 13.1629C20.5846 13.512 20.6049 13.8987 20.5001 14.2606C20.3953 14.6226 20.1716 14.9387 19.8652 15.1579L19.0214 15.7617C18.7121 15.9815 18.4872 16.3003 18.3839 16.6654L18.0802 17.7304C17.9744 18.1043 17.7418 18.4297 17.4222 18.6507C17.1026 18.8718 16.7161 18.9746 16.3289 18.9417L15.4177 18.8667C14.9864 18.8308 14.5583 18.9655 14.2252 19.2417L13.3477 19.9504C13.0485 20.1944 12.6743 20.3276 12.2883 20.3276C11.9023 20.3276 11.5281 20.1944 11.2289 19.9504L10.4789 19.3354C10.1783 19.0905 9.80169 18.9579 9.41391 18.9604H8.09766C7.71887 18.9614 7.35099 18.8335 7.05456 18.5977C6.75808 18.3619 6.55067 18.0322 6.46641 17.6629L6.22641 16.6429C6.13258 16.2313 5.88594 15.8708 5.53641 15.6342L4.73016 15.0417C4.42498 14.8341 4.19727 14.5312 4.08259 14.1804C3.96792 13.8296 3.97278 13.4507 4.09641 13.1029L4.47141 12.0754C4.61016 11.7016 4.61016 11.2905 4.47141 10.9167L4.13391 10.0167C3.99895 9.65921 3.99046 9.26628 4.10986 8.90332C4.22925 8.54035 4.46934 8.22922 4.79016 8.02166L5.67891 7.44791C6.02252 7.22568 6.27321 6.88563 6.38391 6.49166L6.64641 5.54666C6.75159 5.17038 6.98488 4.84271 7.30603 4.62014C7.62714 4.39762 8.01591 4.29427 8.40516 4.32791L9.24516 4.39916C9.67734 4.43321 10.106 4.29884 10.4414 4.02416L11.2402 3.37917C11.5402 3.13395 11.9158 3 12.3033 3C12.6908 3 13.0664 3.13395 13.3664 3.37917L14.0639 3.96416C14.3993 4.24154 14.8302 4.37621 15.2639 4.33916L16.1452 4.27541C16.521 4.25103 16.8942 4.35393 17.2044 4.56757C17.5146 4.78117 17.7439 5.09306 17.8552 5.45291Z" stroke="black" stroke-miterlimit="10"/>
<path d="M12.2824 16L10.0144 12.04V11.512H10.2784C10.7024 11.512 11.0584 11.472 11.3464 11.392C11.6424 11.312 11.8744 11.18 12.0424 10.996C12.2104 10.812 12.3104 10.56 12.3424 10.24H10.0144V9.472H12.3304C12.2744 9.176 12.1624 8.936 11.9944 8.752C11.8264 8.56 11.5984 8.42 11.3104 8.332C11.0304 8.244 10.6864 8.2 10.2784 8.2H10.0144V7.432H14.9824V8.2H12.7144C12.8984 8.352 13.0504 8.532 13.1704 8.74C13.2904 8.948 13.3664 9.192 13.3984 9.472H14.9824V10.24H13.4224C13.3664 10.824 13.1424 11.28 12.7504 11.608C12.3664 11.928 11.8544 12.132 11.2144 12.22L13.5064 16H12.2824Z" fill="black"/>
</svg>
