<svg width="24" height="24" viewBox="0 0 24 24" fill="none" xmlns="http://www.w3.org/2000/svg">
<path d="M11.9997 1.19043L11.4694 1.72069C11.4694 1.72069 8.66648 4.50082 4.49997 4.50082H3.75V12.0006C3.75 16.0004 5.78714 18.6785 7.78109 20.2737C9.77505 21.8689 11.7844 22.4679 11.7844 22.4679L11.9997 22.5339L12.215 22.4679C12.215 22.4679 14.2243 21.8689 16.2183 20.2737C18.2122 18.6785 20.2494 16.0004 20.2494 12.0006V4.50082H19.4994C15.3329 4.50082 12.5299 1.72069 12.5299 1.72069L11.9997 1.19043ZM15.9692 8.47045L17.0298 9.53089L11.2497 15.3109L7.71957 11.7808L8.78008 10.7203L11.2497 13.19L15.9692 8.47045Z" fill="#48B659"/>
</svg>
