<svg width="24" height="24" viewBox="0 0 24 24" fill="none" xmlns="http://www.w3.org/2000/svg">
<path d="M6.14636 11.6468C6.14642 11.6468 6.14636 11.6469 6.14636 11.6468L11.6465 6.14671C11.8451 5.95487 12.1616 5.96036 12.3535 6.15897C12.5406 6.35276 12.5406 6.65995 12.3535 6.85368L7.70697 11.5002H17.5C17.7761 11.5002 18 11.7241 18 12.0002C18 12.2763 17.7761 12.5002 17.5 12.5002H7.70697L12.3535 17.1467C12.5521 17.3385 12.5576 17.6551 12.3658 17.8537C12.174 18.0523 11.8574 18.0578 11.6588 17.866C11.6546 17.862 11.6505 17.8579 11.6465 17.8537L6.14648 12.3537C5.95123 12.1585 5.95123 11.8421 6.14636 11.6468Z" fill="white"/>
</svg>
