<svg width="24" height="24" viewBox="0 0 24 24" fill="none" xmlns="http://www.w3.org/2000/svg">
<path d="M17.8536 11.6468C17.8536 11.6468 17.8536 11.6469 17.8536 11.6468L12.3535 6.14671C12.1549 5.95487 11.8384 5.96036 11.6465 6.15897C11.4594 6.35276 11.4594 6.65995 11.6465 6.85368L16.293 11.5002H6.5C6.22388 11.5002 6 11.7241 6 12.0002C6 12.2763 6.22388 12.5002 6.5 12.5002H16.293L11.6465 17.1467C11.4479 17.3385 11.4424 17.6551 11.6342 17.8537C11.826 18.0523 12.1426 18.0578 12.3412 17.866C12.3454 17.862 12.3495 17.8579 12.3535 17.8537L17.8535 12.3537C18.0488 12.1585 18.0488 11.8421 17.8536 11.6468Z" fill="white"/>
</svg>
