<svg width="37" height="43" viewBox="0 0 37 43" fill="none" xmlns="http://www.w3.org/2000/svg">
<path fill-rule="evenodd" clip-rule="evenodd" d="M18.0476 0.922363L27.0476 6.04544L36.0476 11.307V21.6916V32.0762L27.0476 37.3377L18.0476 42.4608L9.04761 37.3377L0.0476074 32.0762V21.6916V11.307L9.04761 6.04544L18.0476 0.922363Z" fill="white"/>
<path fill-rule="evenodd" clip-rule="evenodd" d="M18.0474 4.38354L25.5243 8.67585L33.0012 12.9682V21.6912V30.4143L25.5243 34.7066L18.0474 38.9989L10.5704 34.7066L3.09351 30.4143V21.6912V12.9682L10.5704 8.67585L18.0474 4.38354Z" fill="white"/>
<path d="M23.7739 12.6917H26.8275L20.1564 20.3163L28.0044 30.6917H21.8595L17.0465 24.399L11.5395 30.6917H8.48411L15.6195 22.5363L8.09088 12.6917H14.3918L18.7422 18.4433L23.7739 12.6917ZM22.7022 28.864H24.3942L13.4724 14.4233H11.6567L22.7022 28.864Z" fill="#591C27"/>
</svg>
