<svg width="37" height="43" viewBox="0 0 37 43" fill="none" xmlns="http://www.w3.org/2000/svg">
<path fill-rule="evenodd" clip-rule="evenodd" d="M18.0476 0.922363L27.0476 6.04544L36.0476 11.307V21.6916V32.0762L27.0476 37.3377L18.0476 42.4608L9.04761 37.3377L0.0476074 32.0762V21.6916V11.307L9.04761 6.04544L18.0476 0.922363Z" fill="white"/>
<path fill-rule="evenodd" clip-rule="evenodd" d="M18.0474 4.38354L25.5243 8.67585L33.0012 12.9682V21.6912V30.4143L25.5243 34.7066L18.0474 38.9989L10.5704 34.7066L3.09351 30.4143V21.6912V12.9682L10.5704 8.67585L18.0474 4.38354Z" fill="white"/>
<path d="M27.1666 20.0917C27.2078 18.8989 26.947 17.715 26.4083 16.65C26.0428 16.213 25.5355 15.9181 24.9749 15.8167C22.6562 15.6063 20.3279 15.52 17.9999 15.5583C15.6805 15.5183 13.3605 15.6017 11.0499 15.8083C10.5931 15.8914 10.1704 16.1057 9.83327 16.425C9.08327 17.1167 8.99994 18.3 8.91661 19.3C8.7957 21.098 8.7957 22.902 8.91661 24.7C8.94072 25.2628 9.02452 25.8215 9.16661 26.3667C9.26709 26.7875 9.47038 27.1769 9.75827 27.5C10.0977 27.8362 10.5303 28.0627 10.9999 28.15C12.7965 28.3718 14.6068 28.4637 16.4166 28.425C19.3333 28.4667 21.8916 28.425 24.9166 28.1917C25.3978 28.1097 25.8426 27.8829 26.1916 27.5417C26.4249 27.3082 26.5992 27.0226 26.6999 26.7083C26.998 25.7938 27.1443 24.8367 27.1333 23.875C27.1666 23.4083 27.1666 20.5917 27.1666 20.0917ZM16.1166 24.375V19.2167L21.0499 21.8083C19.6666 22.575 17.8416 23.4417 16.1166 24.375Z" fill="#591C27"/>
</svg>
